<svg id="visual" viewBox="0 0 900 600" width="900" height="600" xmlns="http://www.w3.org/2000/svg" xmlns:xlink="http://www.w3.org/1999/xlink" version="1.1"><rect x="0" y="0" width="900" height="600" fill="#07497b"></rect><path d="M0 407L21.5 418C43 429 86 451 128.8 451.3C171.7 451.7 214.3 430.3 257.2 419.5C300 408.7 343 408.3 385.8 416.5C428.7 424.7 471.3 441.3 514.2 442.7C557 444 600 430 642.8 433C685.7 436 728.3 456 771.2 457.8C814 459.7 857 443.3 878.5 435.2L900 427L900 601L878.5 601C857 601 814 601 771.2 601C728.3 601 685.7 601 642.8 601C600 601 557 601 514.2 601C471.3 601 428.7 601 385.8 601C343 601 300 601 257.2 601C214.3 601 171.7 601 128.8 601C86 601 43 601 21.5 601L0 601Z" fill="#4f9cf2"></path><path d="M0 443L21.5 443.8C43 444.7 86 446.3 128.8 448.2C171.7 450 214.3 452 257.2 460C300 468 343 482 385.8 479.7C428.7 477.3 471.3 458.7 514.2 457.8C557 457 600 474 642.8 483C685.7 492 728.3 493 771.2 492.5C814 492 857 490 878.5 489L900 488L900 601L878.5 601C857 601 814 601 771.2 601C728.3 601 685.7 601 642.8 601C600 601 557 601 514.2 601C471.3 601 428.7 601 385.8 601C343 601 300 601 257.2 601C214.3 601 171.7 601 128.8 601C86 601 43 601 21.5 601L0 601Z" fill="#4789e4"></path><path d="M0 515L21.5 517.3C43 519.7 86 524.3 128.8 525.8C171.7 527.3 214.3 525.7 257.2 523.8C300 522 343 520 385.8 518.3C428.7 516.7 471.3 515.3 514.2 508.5C557 501.7 600 489.3 642.8 489.8C685.7 490.3 728.3 503.7 771.2 510.3C814 517 857 517 878.5 517L900 517L900 601L878.5 601C857 601 814 601 771.2 601C728.3 601 685.7 601 642.8 601C600 601 557 601 514.2 601C471.3 601 428.7 601 385.8 601C343 601 300 601 257.2 601C214.3 601 171.7 601 128.8 601C86 601 43 601 21.5 601L0 601Z" fill="#4277d5"></path><path d="M0 549L21.5 549.7C43 550.3 86 551.7 128.8 544.7C171.7 537.7 214.3 522.3 257.2 521.8C300 521.3 343 535.7 385.8 535.3C428.7 535 471.3 520 514.2 517.2C557 514.3 600 523.7 642.8 527.2C685.7 530.7 728.3 528.3 771.2 525.7C814 523 857 520 878.5 518.5L900 517L900 601L878.5 601C857 601 814 601 771.2 601C728.3 601 685.7 601 642.8 601C600 601 557 601 514.2 601C471.3 601 428.7 601 385.8 601C343 601 300 601 257.2 601C214.3 601 171.7 601 128.8 601C86 601 43 601 21.5 601L0 601Z" fill="#4064c5"></path><path d="M0 565L21.5 565.8C43 566.7 86 568.3 128.8 565.5C171.7 562.7 214.3 555.3 257.2 554.8C300 554.3 343 560.7 385.8 565.8C428.7 571 471.3 575 514.2 576.7C557 578.3 600 577.7 642.8 573.7C685.7 569.7 728.3 562.3 771.2 559.2C814 556 857 557 878.5 557.5L900 558L900 601L878.5 601C857 601 814 601 771.2 601C728.3 601 685.7 601 642.8 601C600 601 557 601 514.2 601C471.3 601 428.7 601 385.8 601C343 601 300 601 257.2 601C214.3 601 171.7 601 128.8 601C86 601 43 601 21.5 601L0 601Z" fill="#3f51b5"></path></svg>