<svg id="visual" viewBox="0 0 900 600" width="900" height="600" xmlns="http://www.w3.org/2000/svg" xmlns:xlink="http://www.w3.org/1999/xlink" version="1.1"><rect x="0" y="0" width="900" height="600" fill="#3f51b5"></rect><path d="M0 260L30 252.5C60 245 120 230 180 212.2C240 194.3 300 173.7 360 178.7C420 183.7 480 214.3 540 213C600 211.7 660 178.3 720 156.8C780 135.3 840 125.7 870 120.8L900 116L900 0L870 0C840 0 780 0 720 0C660 0 600 0 540 0C480 0 420 0 360 0C300 0 240 0 180 0C120 0 60 0 30 0L0 0Z" fill="#060b2a" stroke-linecap="round" stroke-linejoin="miter"></path></svg>